<?xml version="1.0" encoding="UTF-8" standalone="no"?>
<!-- Created with Inkscape (http://www.inkscape.org/) -->

<svg
   width="75.178566mm"
   height="76.260414mm"
   viewBox="0 0 75.178566 76.260414"
   version="1.1"
   id="svg1"
   xmlns="http://www.w3.org/2000/svg"
   xmlns:svg="http://www.w3.org/2000/svg">
  <defs
     id="defs1" />
  <g
     id="layer1"
     transform="translate(-12.286325,-10.329532)">
    <path
       id="rect1"
       style="fill:#808080;fill-opacity:1;stroke:#000000;stroke-width:0.239779;stroke-opacity:1"
       d="m 37.011847,10.449421 v 49.76023 H 86.77207 v -49.76023 z m 22.89373,5.85164 h 3.42903 c -0.0418,5.39484 -0.0836,10.78995 -0.87809,15.85023 l 0.1255,-0.0421 c 2.50923,9.95328 8.11299,16.68648 18.359023,19.11207 -0.71096,0.66913 -1.63102,2.00768 -2.09105,2.8441 -8.991413,-2.50923 -14.428213,-8.11354 -17.564743,-16.51947 -2.17467,7.15132 -6.73276,13.17378 -16.30966,16.81217 -0.37638,-0.79459 -1.33859,-1.9241 -2.13318,-2.55141 17.43915,-6.3567 16.93771,-20.74291 17.06317,-35.50554 z m -10.37184,7.98763 3.05297,0.92025 c -1.04552,4.18205 -2.75987,9.284 -5.39456,12.3369 l -3.01128,-1.50517 c 2.63468,-2.96925 4.43281,-7.73721 5.35287,-11.75198 z m 26.012743,0 3.3452,1.29678 c -1.84011,3.97294 -4.34911,8.78197 -6.356493,11.83487 l -2.63475,-1.21248 c 1.92373,-3.13654 4.349603,-8.23896 5.646043,-11.91917 z" />
    <path
       id="rect1-5"
       style="fill:#808080;fill-opacity:1;stroke:#000000;stroke-width:0.1695;stroke-opacity:1"
       d="M 37.436187,60.236011 13.709794,85.066507 H 63.540287 L 87.26669,60.236011 Z m 20.33028,2.82604 h 3.35039 l -4.82576,5.05032 c -0.1953,1.16864 -0.1194,2.31623 0.14199,3.40139 4.00037,-1.29385 9.08341,-3.15102 12.49147,-4.57008 l 1.89057,1.00161 c -4.29947,1.60687 -9.8412,3.50593 -13.94926,4.73717 1.08713,2.5877 3.57803,4.75803 7.52878,5.92667 -1.07287,0.33389 -2.73774,0.9809 -3.72088,1.44001 -4.89808,-1.71122 -7.19188,-5.00845 -7.39366,-8.78566 l -8.41487,8.80646 c -1.01698,1.064296 -1.99845,1.565286 -3.51406,1.836576 -1.57746,0.29217 -3.66925,0.33372 -6.893988,0.33372 0.271196,-0.45911 0.464757,-1.23112 0.420849,-1.711096 2.389149,0.0417 4.566659,0.0416 5.256599,0.0208 0.69006,-0.0209 1.02111,-0.1042 1.3601,-0.45896 z m -9.36048,5.23798 1.67282,0.39658 c -7.27653,5.46756 -15.925401,9.39093 -23.824484,11.47779 -0.185506,-0.37564 -0.863348,-0.98097 -1.397837,-1.21052 6.973778,-1.7321 14.298231,-4.88318 20.256721,-9.01516 h -10.30209 l 1.515542,-1.58606 h 11.433248 z" />
    <path
       id="rect1-1"
       style="fill:#808080;fill-opacity:1;stroke:#000000;stroke-width:0.1695;stroke-opacity:1"
       d="M 12.371075,36.548871 V 86.379367 L 37.201577,60.528211 v -49.8305 z m 11.528272,-5.34638 1.669497,-1.73812 v 13.35936 l 7.241421,-7.53907 v 3.05728 l -7.241421,7.53907 v 17.04506 l 8.576972,-8.92952 v 3.05728 l -18.718981,19.48841 v -3.05728 l 8.472512,-8.82077 v -17.04506 l -7.136961,7.43032 v -3.05728 l 7.136961,-7.43032 z" />
  </g>
</svg>
